<svg xmlns="http://www.w3.org/2000/svg" width="1024" height="1024" viewBox="0 0 1024 1024">
  <title>Boelabs isotipo</title>
  <path fill='#020617' d="M402.096.576c3.608.961 78.938 51.17 84.31 55.484.74 15.707-.058 34.28.114 50.3.438 40.462-.654 81.637.072 122.034 3.592 5.1 18.568 15.032 24.4 18 5.236-3.068 19.798-12.958 23.908-16.896 1.002-15.794.11-37.62.268-53.95.388-39.796-.494-79.928-.038-119.728 1.974-1.817 5.44-4.04 7.734-5.511C568.658 33.784 593.956 16.265 619.91.021l.052 103.827-.046 118.92c.016 20.796.406 42.272.024 62.998-3.27 3.95-13.76 11.174-18.172 14.338a625 625 0 0 1-53.464 34.852c-7.246 4.218-15.052 8.982-22.798 12.052a37.3 37.3 0 0 1-13.91 2.644c-14.332.054-25.22-7.658-37.212-14.458-19.308-11.006-37.954-23.216-55.718-36.576-5.274-3.966-11.864-8.13-16.526-12.7-.698-9.752-.19-24.316-.186-34.422l.01-65.278zm457.676 192.929.742-.036c3.586 3.852.858 67.665.616 77.393-.086 3.448.15 9.14-1.926 12.018-1.374 1.904-3.64 3.486-5.572 4.81-11.226 7.704-23.446 14.404-35.086 21.5l-67.596 41.362c-6.75 4.152-19.462 10.754-24.574 15.866-1.386 6.4-2.476 22.36-2.644 28.996 8.076 5.73 18.878 9.132 27.838 13.834 6.664-4.494 13.674-8.428 20.524-12.672l49.274-30.28 33.518-20.726c4.198-2.562 14.694-9.268 19.036-10.646 8.646 2.898 28.988 13.934 37.272 18.192l67.188 34.8c-5.438 2.602-11.968 7.106-17.392 10.316-21.4 12.664-44.026 24.754-64.968 38.074-12.162 6.784-25.926 15.674-37.784 23.114l-47.304 29.246c-6.822 4.178-23.932 15.634-30.566 17.384-6.978-1.618-12.65-4.686-19.066-7.756a1492 1492 0 0 1-26.584-13.034l-41.676-20.958c-21.306-10.954-36.524-18.398-48.628-40.99-12-22.4-9.29-43.562-9.446-67.852-.062-9.766 1.47-28.606 10.108-35.19 9.96-7.592 23.534-14.722 34.524-21.154l69.878-40.654 69.208-41.134c12.084-7.218 28.866-17.818 41.086-23.823m-698.252-.62c6.361 3.186 10.675 6.231 16.646 9.687l42.484 25.004 137.602 80.9c10.95 6.394 25.21 12.66 26.906 26.338 3.562 28.708 5.44 67.668-9.78 92.76a78.35 78.35 0 0 1-21.238 22.796c-10.514 7.628-98.464 52.19-109.572 54.668-2.212.492-4.34.664-6.47-.222-5.42-2.256-10.532-5.84-15.522-8.906a2737 2737 0 0 1-24.053-14.87l-71.34-43.994c-27.315-17.22-56.325-32.614-83.897-49.146a3311 3311 0 0 1 71.045-36.698c9.956-5.084 21.698-11.368 32.06-15.648 1.773-.716 5.796 1.446 7.419 2.418 38.974 23.342 77.286 48.4 116.634 71.108 8.876-4.898 19.402-8.562 28.582-13.61-.61-9.062-1.988-19.728-2.782-29.082-4.532-4.068-22.984-14.594-29.3-18.412l-65.05-39.632c-11.18-6.802-22.522-13.61-33.68-20.456-1.821-1.118-4.717-3.544-5.773-5.37-.74-1.28-1.44-5.196-1.418-6.6.195-12.69-1.898-74.922.497-83.033m78.522 340.637c6.286-.14 27.016 10.684 34.136 14.07a2198 2198 0 0 1 50.158 24.568c9.218 4.642 21.986 10.68 30.142 16.584a77.5 77.5 0 0 1 22.456 24.936c10.654 19.012 10.382 40.102 10.182 61.342-.134 14.22 1.222 33.452-11.568 43.56-4.014 3.174-10.018 6.376-14.496 8.974l-25.142 14.502-79.75 46.644-65.524 39.368-17.379 10.386c-2.696 1.632-8.877 6.452-11.663 5.264-1.825-3.162-1.099-23.102-1.103-27.882q-.115-18.924.247-37.846c.42-26.106-1.364-22.89 20.62-36.54l34.334-21.096c20.868-12.08 41.048-25.716 61.896-37.872 6.094-3.554 12.524-7.256 18.116-11.516 1.25-5.258 3.37-24.076 3.294-29.42-7.516-4.446-20.402-9.608-28.6-12.908-6.676 2.934-25.014 14.88-31.918 19.14l-60.723 37.414c-5.605 3.5-24.758 15.474-29.58 17.448-14.303-4.17-34.983-15.906-48.912-22.692-17.941-8.74-38.697-17.636-55.767-27.58 35.5-21.892 72.275-42.504 107.666-64.65a5941 5941 0 0 1 57.682-36.016c8.03-4.966 23.158-14.89 31.196-18.182m538.836.03c6.398-.33 25.86 13.256 32.07 17.106l46.54 28.916a6552 6552 0 0 0 121.084 72.802c-19.184 10.472-42.026 20.696-61.796 30.314a1587 1587 0 0 1-26.786 12.966c-5.016 2.388-10.33 5.226-15.558 6.97-5.224-1.604-31.27-18.318-37.61-22.272l-55.082-33.96c-10.16-6.202-19.434-12.196-29.88-17.932-4.658 1.46-24.62 10.096-27.698 13.142-1.218 3.494 1.636 22.43 2.278 27.398.244 1.282 1.036 2.764 2.152 3.448 25.076 15.368 50.188 32.112 75.626 46.79l32.51 20.032c6.446 3.906 13.768 7.74 19.582 12.33 3.678 2.904 4.626 5.64 4.798 10.316.404 10.95 3.056 78.342-.42 82.388-3.74.028-15.064-8.04-18.984-10.406l-33.808-20.228-82.76-49.474c-25.12-15.01-51.99-29.456-76.726-44.882-16.754-11.656-12.912-34.94-13.732-51.336-3.396-67.808 33.674-81.75 86.034-107.584a2878 2878 0 0 1 31.724-15.398c8.896-4.282 16.968-8.528 26.442-11.446M402.88 750.072c4.82-4.322 15.038-11.582 20.536-15.526a573 573 0 0 1 51.208-33.262c16.774-9.724 34.09-20.5 53.894-10.116 31.274 16.4 62.234 36.03 89.542 58.354 3.172 2.614 1.726 24.148 1.68 28.994q-.068 19.389.11 38.778l.096 145.096-.048 43.412c-.018 5.656-.376 12.476-.222 17.964-13.366-7.174-32.326-20.568-45.744-28.994-9.04-5.676-30.89-19.18-38.388-25.37-.62-13.486-.334-28.588-.338-42.176l.04-74.688c.008-14.99.246-31.084-.27-45.972-5.114-4.036-18.218-13.638-23.88-16.52-5.81 3.152-19.226 12.536-24.06 17.032-1.048 13.67-.516 32.616-.52 46.776l.06 78.46c.04 9.476.78 28.206.122 37-6.008 4.802-16.334 11.088-22.98 15.336a3258 3258 0 0 0-35.402 22.908c-6.942 4.464-18.384 11.53-24.86 16.442h-.786c-1.072-5.938-.628-25.216-.61-32.426l.342-68.288.166-112.758c.004-17.554-.792-43.586.312-60.456"/>
</svg>
